# xmcd
#
# Track frame offsets:
#	187
#	14010
#	31837
#	46690
#	65560
#	77447
#	95597
#	113055
#	128302
#	147287
#
# Disc length: 2173 seconds
#
# Revision: 0
# Processed by: cddbd v1.4PL0 Copyright (c) Steve Scherf et al.
# Submitted via: AudioConverter v4.05 Copyright (c) Dennis Rebentrost
#
DISCID=75087b0a
DTITLE=Various Artist - American Folk Blues Festival 1967
DYEAR=1900
DGENRE=Blues
TTITLE0=Bukka White - Aberdeen blues
TTITLE1=Hound Dog Taylor - The sky is crying
TTITLE2=Sonny Terry and Brownie McGhee - Rock island line
TTITLE3=Son House - Got a letter this morning
TTITLE4=Little Walter and Hound Dog Taylor - You be so fine
TTITLE5=Little Walter and Hound Dog Taylor - Wang dang doodle
TTITLE6=Skip James - Hard luck child
TTITLE7=Brownie McGhee - I'm gonna move across the river
TTITLE8=Little Walter * Hound Dog Taylor * Koko Taylor - What kind of man is this
TTITLE9=Sonny Terry and Brownie McGhee - Walk on
EXTD=
EXTT0=
EXTT1=
EXTT2=
EXTT3=
EXTT4=
EXTT5=
EXTT6=
EXTT7=
EXTT8=
EXTT9=
PLAYORDER=
